<svg width="24" height="24" fill="none" xmlns="http://www.w3.org/2000/svg"><path fill-rule="evenodd" clip-rule="evenodd" d="M21 0H3C1.346 0 0 1.346 0 3v13c0 1.654 1.346 3 3 3h4.52l3.699 4.625a1 1 0 0 0 1.562 0L16.48 19H21c1.654 0 3-1.346 3-3V3c0-1.654-1.346-3-3-3ZM11 6a1 1 0 1 1 2 0v4a1 1 0 1 1-2 0V6Zm0 6.99a1 1 0 1 1 2 0c0 .552-.447 1.005-1 1.005-.553 0-1-.443-1-.995v-.01ZM21 17c.552 0 1-.449 1-1V3c0-.551-.448-1-1-1H3c-.552 0-1 .449-1 1v13c0 .551.448 1 1 1h5a1 1 0 0 1 .781.375L12 21.399l3.219-4.024A1 1 0 0 1 16 17h5Z" fill="#E92F9E"/></svg>