<svg width="32" height="32" fill="none" xmlns="http://www.w3.org/2000/svg"><path d="M26.667 12H16.5l1.963-5.185c.502-1.328.056-2.847-1.07-3.64-1.285-.906-3.018-.57-3.916.758L8.025 12H8v12a5.334 5.334 0 0 0 5.333 5.333h8.934a2.668 2.668 0 0 0 2.437-1.584l4.4-9.9c.15-.34.23-.709.23-1.082v-2.1A2.666 2.666 0 0 0 26.666 12Z" stroke="#112035" stroke-width="2"/><path d="M6.667 29.333H4A1.334 1.334 0 0 1 2.667 28V13.333C2.667 12.597 3.264 12 4 12h4v16c0 .736-.597 1.333-1.333 1.333Z" fill="#112035" stroke="#112035" stroke-width="2"/></svg>